<?xml version="1.0" encoding="UTF-8" standalone="no"?> <svg xmlns="http://www.w3.org/2000/svg" xmlns:xlink="http://www.w3.org/1999/xlink" viewBox="0 0 64 64"><defs><style>.cls-1{fill:url(#linear-gradient);}.cls-2{fill:url(#linear-gradient-2);}.cls-3{fill:url(#linear-gradient-3);}.cls-4{fill:url(#linear-gradient-4);}.cls-5{fill:url(#linear-gradient-5);}.cls-6{fill:url(#linear-gradient-6);}</style><linearGradient id="linear-gradient" x1="7.42" y1="32" x2="56.58" y2="32" gradientUnits="userSpaceOnUse"><stop offset="0" stop-color="#afddff"/><stop offset="0.03" stop-color="#acdaff"/><stop offset="0.69" stop-color="#709dff"/><stop offset="1" stop-color="#5885ff"/></linearGradient><linearGradient id="linear-gradient-2" x1="27.08" y1="24.7" x2="32.42" y2="24.7" xlink:href="#linear-gradient"/><linearGradient id="linear-gradient-3" x1="26.86" y1="27.27" x2="37.21" y2="27.27" xlink:href="#linear-gradient"/><linearGradient id="linear-gradient-4" x1="31.65" y1="29.83" x2="36.99" y2="29.83" xlink:href="#linear-gradient"/><linearGradient id="linear-gradient-5" x1="47.38" y1="52" x2="53" y2="52" xlink:href="#linear-gradient"/><linearGradient id="linear-gradient-6" x1="11" y1="52" x2="16.63" y2="52" xlink:href="#linear-gradient"/></defs><g id="Layer_15" data-name="Layer 15"><path class="cls-1" d="M54,11H10a2.55,2.55,0,0,0-2.55,2.55V42.2A2.55,2.55,0,0,0,10,44.75H31v2H27.68A5.24,5.24,0,0,0,22.55,51H20.5a1,1,0,0,0,0,2h23a1,1,0,0,0,0-2h-2a5.24,5.24,0,0,0-5.13-4.24H33v-2H54a2.55,2.55,0,0,0,2.55-2.55V13.55A2.55,2.55,0,0,0,54,11ZM39.38,51H24.62a3.23,3.23,0,0,1,3.06-2.24h8.64A3.23,3.23,0,0,1,39.38,51ZM10,13H54a.55.55,0,0,1,.55.55V38.06A2.44,2.44,0,0,0,54,38H10a2.44,2.44,0,0,0-.55.06V13.55A.55.55,0,0,1,10,13ZM54.58,42.2a.55.55,0,0,1-.55.55H10a.55.55,0,0,1-.55-.55V40.55A.55.55,0,0,1,10,40H54a.55.55,0,0,1,.55.55Z"/><path class="cls-2" d="M28.08,27.47a1,1,0,0,0,.72-.31l3.35-3.54a1,1,0,0,0-1.46-1.37l-3.34,3.53a1,1,0,0,0,.73,1.69Z"/><path class="cls-3" d="M27.86,32.69a1,1,0,0,0,.73-.32l8.35-8.84a1,1,0,0,0,0-1.41,1,1,0,0,0-1.42,0L27.13,31a1,1,0,0,0,0,1.41A1,1,0,0,0,27.86,32.69Z"/><path class="cls-4" d="M35.27,27.38l-3.35,3.53a1,1,0,0,0,0,1.42,1,1,0,0,0,1.41,0l3.34-3.53a1,1,0,0,0-1.45-1.37Z"/><path class="cls-5" d="M52,51H48.38a1,1,0,1,0,0,2H52a1,1,0,0,0,0-2Z"/><path class="cls-6" d="M15.63,51H12a1,1,0,0,0,0,2h3.63a1,1,0,0,0,0-2Z"/></g></svg>